static pose
version=1
nRows=1
nColumns=302
inDegrees=no
endheader
time	R.ASIS_tx	R.ASIS_ty	R.ASIS_tz	L.ASIS_tx	L.ASIS_ty	L.ASIS_tz	V.Sacral_tx	V.Sacral_ty	V.Sacral_tz	R.Thigh.Upper_tx	R.Thigh.Upper_ty	R.Thigh.Upper_tz	R.Thigh.Front_tx	R.Thigh.Front_ty	R.Thigh.Front_tz	R.Thigh.Rear_tx	R.Thigh.Rear_ty	R.Thigh.Rear_tz	L.Thigh.Upper_tx	L.Thigh.Upper_ty	L.Thigh.Upper_tz	L.Thigh.Front_tx	L.Thigh.Front_ty	L.Thigh.Front_tz	L.Thigh.Rear_tx	L.Thigh.Rear_ty	L.Thigh.Rear_tz	R.Knee.Lat_tx	R.Knee.Lat_ty	R.Knee.Lat_tz	R.Knee.Med_tx	R.Knee.Med_ty	R.Knee.Med_tz	L.Knee.Lat_tx	L.Knee.Lat_ty	L.Knee.Lat_tz	L.Knee.Med_tx	L.Knee.Med_ty	L.Knee.Med_tz	R.Shank.Upper_tx	R.Shank.Upper_ty	R.Shank.Upper_tz	R.Shank.Front_tx	R.Shank.Front_ty	R.Shank.Front_tz	R.Shank.Rear_tx	R.Shank.Rear_ty	R.Shank.Rear_tz	L.Shank.Upper_tx	L.Shank.Upper_ty	L.Shank.Upper_tz	L.Shank.Front_tx	L.Shank.Front_ty	L.Shank.Front_tz	L.Shank.Rear_tx	L.Shank.Rear_ty	L.Shank.Rear_tz	R.Ankle.Lat_tx	R.Ankle.Lat_ty	R.Ankle.Lat_tz	R.Ankle.Med_tx	R.Ankle.Med_ty	R.Ankle.Med_tz	L.Ankle.Lat_tx	L.Ankle.Lat_ty	L.Ankle.Lat_tz	L.Ankle.Med_tx	L.Ankle.Med_ty	L.Ankle.Med_tz	R.Heel_tx	R.Heel_ty	R.Heel_tz	R.Midfoot.Sup_tx	R.Midfoot.Sup_ty	R.Midfoot.Sup_tz	R.Midfoot.Lat_tx	R.Midfoot.Lat_ty	R.Midfoot.Lat_tz	R.Toe.Tip_tx	R.Toe.Tip_ty	R.Toe.Tip_tz	L.Heel_tx	L.Heel_ty	L.Heel_tz	L.Midfoot.Sup_tx	L.Midfoot.Sup_ty	L.Midfoot.Sup_tz	L.Midfoot.Lat_tx	L.Midfoot.Lat_ty	L.Midfoot.Lat_tz	L.Toe.Tip_tx	L.Toe.Tip_ty	L.Toe.Tip_tz	Sternum_tx	Sternum_ty	Sternum_tz	R.Acromium_tx	R.Acromium_ty	R.Acromium_tz	L.Acromium_tx	L.Acromium_ty	L.Acromium_tz	R.Bicep_tx	R.Bicep_ty	R.Bicep_tz	L.Bicep_tx	L.Bicep_ty	L.Bicep_tz	R.Elbow_tx	R.Elbow_ty	R.Elbow_tz	L.Elbow_tx	L.Elbow_ty	L.Elbow_tz	R.Wrist.Med_tx	R.Wrist.Med_ty	R.Wrist.Med_tz	R.Wrist.Lat_tx	R.Wrist.Lat_ty	R.Wrist.Lat_tz	L.Wrist.Med_tx	L.Wrist.Med_ty	L.Wrist.Med_tz	L.Wrist.Lat_tx	L.Wrist.Lat_ty	L.Wrist.Lat_tz	R.Toe.Lat_tx	R.Toe.Lat_ty	R.Toe.Lat_tz	R.Toe.Med_tx	R.Toe.Med_ty	R.Toe.Med_tz	L.Toe.Lat_tx	L.Toe.Lat_ty	L.Toe.Lat_tz	L.Toe.Med_tx	L.Toe.Med_ty	L.Toe.Med_tz	R.Temple_tx	R.Temple_ty	R.Temple_tz	L.Temple_tx	L.Temple_ty	L.Temple_tz	Top.Head_tx	Top.Head_ty	Top.Head_tz	pelvis_tilt	pelvis_list	pelvis_rotation	pelvis_tx	pelvis_ty	pelvis_tz	hip_flexion_r	hip_adduction_r	hip_rotation_r	knee_angle_r	ankle_angle_r	subtalar_angle_r	mtp_angle_r	hip_flexion_l	hip_adduction_l	hip_rotation_l	knee_angle_l	ankle_angle_l	subtalar_angle_l	mtp_angle_l	lumbar_extension	lumbar_bending	lumbar_rotation	pelvis_tilt_u	pelvis_list_u	pelvis_rotation_u	pelvis_tx_u	pelvis_ty_u	pelvis_tz_u	hip_flexion_r_u	hip_adduction_r_u	hip_rotation_r_u	knee_angle_r_u	ankle_angle_r_u	subtalar_angle_r_u	mtp_angle_r_u	hip_flexion_l_u	hip_adduction_l_u	hip_rotation_l_u	knee_angle_l_u	ankle_angle_l_u	subtalar_angle_l_u	mtp_angle_l_u	lumbar_extension_u	lumbar_bending_u	lumbar_rotation_u	glut_med1_r.activation	glut_med1_r.fiber_length	glut_med2_r.activation	glut_med2_r.fiber_length	glut_med3_r.activation	glut_med3_r.fiber_length	bifemlh_r.activation	bifemlh_r.fiber_length	bifemsh_r.activation	bifemsh_r.fiber_length	sar_r.activation	sar_r.fiber_length	add_mag2_r.activation	add_mag2_r.fiber_length	tfl_r.activation	tfl_r.fiber_length	pect_r.activation	pect_r.fiber_length	grac_r.activation	grac_r.fiber_length	glut_max1_r.activation	glut_max1_r.fiber_length	glut_max2_r.activation	glut_max2_r.fiber_length	glut_max3_r.activation	glut_max3_r.fiber_length	iliacus_r.activation	iliacus_r.fiber_length	psoas_r.activation	psoas_r.fiber_length	quad_fem_r.activation	quad_fem_r.fiber_length	gem_r.activation	gem_r.fiber_length	peri_r.activation	peri_r.fiber_length	rect_fem_r.activation	rect_fem_r.fiber_length	vas_int_r.activation	vas_int_r.fiber_length	med_gas_r.activation	med_gas_r.fiber_length	soleus_r.activation	soleus_r.fiber_length	tib_post_r.activation	tib_post_r.fiber_length	tib_ant_r.activation	tib_ant_r.fiber_length	glut_med1_l.activation	glut_med1_l.fiber_length	glut_med2_l.activation	glut_med2_l.fiber_length	glut_med3_l.activation	glut_med3_l.fiber_length	bifemlh_l.activation	bifemlh_l.fiber_length	bifemsh_l.activation	bifemsh_l.fiber_length	sar_l.activation	sar_l.fiber_length	add_mag2_l.activation	add_mag2_l.fiber_length	tfl_l.activation	tfl_l.fiber_length	pect_l.activation	pect_l.fiber_length	grac_l.activation	grac_l.fiber_length	glut_max1_l.activation	glut_max1_l.fiber_length	glut_max2_l.activation	glut_max2_l.fiber_length	glut_max3_l.activation	glut_max3_l.fiber_length	iliacus_l.activation	iliacus_l.fiber_length	psoas_l.activation	psoas_l.fiber_length	quad_fem_l.activation	quad_fem_l.fiber_length	gem_l.activation	gem_l.fiber_length	peri_l.activation	peri_l.fiber_length	rect_fem_l.activation	rect_fem_l.fiber_length	vas_int_l.activation	vas_int_l.fiber_length	med_gas_l.activation	med_gas_l.fiber_length	soleus_l.activation	soleus_l.fiber_length	tib_post_l.activation	tib_post_l.fiber_length	tib_ant_l.activation	tib_ant_l.fiber_length	ercspn_r.activation	ercspn_r.fiber_length	ercspn_l.activation	ercspn_l.fiber_length	intobl_r.activation	intobl_r.fiber_length	intobl_l.activation	intobl_l.fiber_length	extobl_r.activation	extobl_r.fiber_length	extobl_l.activation	extobl_l.fiber_length
  0.00000000	  0.60623401	  1.07305817	  0.15745045	  0.60852762	  1.06046808	 -0.10445004	  0.40961279	  1.07931439	  0.03622894	  0.54369241	  0.75668411	  0.22414523	  0.59354544	  0.68194586	  0.13424638	  0.52288608	  0.63678115	  0.22653301	  0.51661084	  0.76806625	 -0.16883060	  0.60535657	  0.71849899	 -0.11177802	  0.50543730	  0.65871311	 -0.16023007	  0.47582503	  0.55358545	  0.21707000	  0.46970554	  0.52575824	  0.09798704	  0.47707344	  0.52861047	 -0.15010820	  0.49883496	  0.51978442	 -0.03624947	  0.44229073	  0.46884076	  0.23616105	  0.51363327	  0.42413005	  0.18394207	  0.45320744	  0.38409173	  0.25322770	  0.46809214	  0.45035277	 -0.17072775	  0.51712161	  0.39318264	 -0.12783578	  0.44577011	  0.40952162	 -0.18112156	  0.43761078	  0.09809818	  0.25548286	  0.44405480	  0.10362106	  0.16512905	  0.44297388	  0.09364057	 -0.17221204	  0.46498396	  0.10905333	 -0.08175011	  0.36664442	  0.07063145	  0.21027769	  0.50730867	  0.08033965	  0.16493885	  0.50936324	  0.06372204	  0.27288367	  0.65716791	  0.05065243	  0.19533653	  0.37162500	  0.07547001	 -0.11505056	  0.54481299	  0.07703873	 -0.09477508	  0.52297268	  0.06575788	 -0.19203967	  0.65425132	  0.04825961	 -0.12770575	  0.60510214	  1.42539460	  0.02359721	  0.48742981	  1.55003790	  0.19253902	  0.48672627	  1.56071924	 -0.14816296	  0.52235407	  1.50528522	  0.35770953	  0.53110684	  1.50742548	 -0.32601645	  0.51771375	  1.47371710	  0.46103801	  0.49514162	  1.47582299	 -0.42743192	  0.66923324	  1.46865595	  0.68636859	  0.60961771	  1.47769269	  0.71114008	  0.62476221	  1.44321729	 -0.64501749	  0.55212082	  1.44761560	 -0.66395504	  0.59926956	  0.03961378	  0.27652644	  0.59419861	  0.04953288	  0.16785055	  0.58534509	  0.03991663	 -0.20171239	  0.60596716	  0.05162955	 -0.10089749	  0.60744204	  1.65533490	  0.12607754	  0.66643949	  1.64548486	  0.00089789	  0.58908158	  1.81480859	  0.03040525	 -0.02095647	 -0.01654981	  0.01403239	  0.58072065	  1.03557931	  0.02827954	 -0.05839494	 -0.07867195	  0.00404715	  0.01676784	  0.05766600	  0.09028260	  0.00000000	 -0.01562773	 -0.09310989	 -0.16673530	 -0.04452685	  0.06654787	  0.26091359	  0.00000000	 -0.05086216	  0.00625985	 -0.00045184	  0.00000000	  0.00000000	  0.00000000	  0.00000000	  0.00000000	  0.00000000	  0.00000000	  0.00000000	  0.00000000	  0.00000000	  0.00000000	  0.00000000	  0.00000000	  0.00000000	  0.00000000	  0.00000000	  0.00000000	  0.00000000	  0.00000000	  0.00000000	  0.00000000	  0.00000000	  0.00000000	  0.05000000	  0.10000000	  0.05000000	  0.10000000	  0.05000000	  0.10000000	  0.05000000	  0.10000000	  0.05000000	  0.10000000	  0.05000000	  0.10000000	  0.05000000	  0.10000000	  0.05000000	  0.10000000	  0.05000000	  0.10000000	  0.05000000	  0.10000000	  0.05000000	  0.10000000	  0.05000000	  0.10000000	  0.05000000	  0.10000000	  0.05000000	  0.10000000	  0.05000000	  0.10000000	  0.05000000	  0.10000000	  0.05000000	  0.10000000	  0.05000000	  0.10000000	  0.05000000	  0.10000000	  0.05000000	  0.10000000	  0.05000000	  0.10000000	  0.05000000	  0.10000000	  0.05000000	  0.10000000	  0.05000000	  0.10000000	  0.05000000	  0.10000000	  0.05000000	  0.10000000	  0.05000000	  0.10000000	  0.05000000	  0.10000000	  0.05000000	  0.10000000	  0.05000000	  0.10000000	  0.05000000	  0.10000000	  0.05000000	  0.10000000	  0.05000000	  0.10000000	  0.05000000	  0.10000000	  0.05000000	  0.10000000	  0.05000000	  0.10000000	  0.05000000	  0.10000000	  0.05000000	  0.10000000	  0.05000000	  0.10000000	  0.05000000	  0.10000000	  0.05000000	  0.10000000	  0.05000000	  0.10000000	  0.05000000	  0.10000000	  0.05000000	  0.10000000	  0.05000000	  0.10000000	  0.05000000	  0.10000000	  0.05000000	  0.10000000	  0.05000000	  0.10000000	  0.05000000	  0.10000000	  0.05000000	  0.10000000	  0.05000000	  0.10000000	  0.05000000	  0.10000000	  0.05000000	  0.10000000	  0.05000000	  0.10000000
